<svg width="44" height="44" viewBox="0 0 44 44" fill="none" xmlns="http://www.w3.org/2000/svg">
<path d="M31.1663 3.66634C33.5954 3.67359 35.9229 4.64176 37.6405 6.3594C39.3582 8.07703 40.3263 10.4046 40.3336 12.8337V31.1663C40.3263 33.5954 39.3582 35.923 37.6405 37.6406C35.9229 39.3582 33.5954 40.3264 31.1663 40.3337H12.8336C10.4045 40.3264 8.07697 39.3582 6.35934 37.6406C4.6417 35.923 3.67353 33.5954 3.66628 31.1663V12.8337C3.67353 10.4046 4.6417 8.07703 6.35934 6.3594C8.07697 4.64176 10.4045 3.67359 12.8336 3.66634H31.1663ZM31.1663 0H12.8336C5.77494 0 -6.10352e-05 5.775 -6.10352e-05 12.8337V31.1663C-6.10352e-05 38.225 5.77494 44 12.8336 44H31.1663C38.2249 44 43.9999 38.225 43.9999 31.1663V12.8337C43.9999 5.775 38.2249 0 31.1663 0Z" fill="#050505"/>
<path d="M33.9163 12.8335C33.3724 12.8335 32.8407 12.6722 32.3885 12.37C31.9362 12.0678 31.5837 11.6383 31.3756 11.1359C31.1675 10.6334 31.113 10.0804 31.2191 9.54699C31.3252 9.01354 31.5871 8.52354 31.9717 8.13895C32.3563 7.75436 32.8463 7.49245 33.3798 7.38634C33.9132 7.28023 34.4662 7.33469 34.9687 7.54283C35.4712 7.75097 35.9006 8.10344 36.2028 8.55567C36.505 9.0079 36.6663 9.53959 36.6663 10.0835C36.667 10.4448 36.5964 10.8028 36.4585 11.1368C36.3206 11.4708 36.1181 11.7742 35.8626 12.0297C35.607 12.2853 35.3036 12.4878 34.9696 12.6257C34.6356 12.7636 34.2776 12.8342 33.9163 12.8335ZM21.9999 14.6661C23.4504 14.6661 24.8683 15.0962 26.0743 15.9021C27.2803 16.7079 28.2203 17.8533 28.7754 19.1933C29.3304 20.5333 29.4757 22.0079 29.1927 23.4305C28.9097 24.853 28.2112 26.1598 27.1856 27.1854C26.16 28.211 24.8533 28.9095 23.4307 29.1925C22.0081 29.4754 20.5335 29.3302 19.1935 28.7751C17.8534 28.2201 16.7081 27.2801 15.9022 26.0741C15.0964 24.8681 14.6663 23.4502 14.6663 21.9997C14.6684 20.0554 15.4417 18.1913 16.8166 16.8164C18.1914 15.4415 20.0556 14.6682 21.9999 14.6661ZM21.9999 10.9998C19.8243 10.9998 17.6976 11.6449 15.8887 12.8536C14.0797 14.0623 12.6698 15.7803 11.8373 17.7903C11.0047 19.8002 10.7869 22.012 11.2113 24.1457C11.6357 26.2795 12.6834 28.2395 14.2218 29.7779C15.7601 31.3162 17.7202 32.3639 19.8539 32.7883C21.9877 33.2128 24.1995 32.9949 26.2095 32.1624C28.2194 31.3298 29.9374 29.9199 31.1461 28.111C32.3548 26.3021 32.9999 24.1753 32.9999 21.9997C32.9999 19.0824 31.841 16.2845 29.7781 14.2216C27.7152 12.1587 24.9173 10.9998 21.9999 10.9998Z" fill="#050505"/>
</svg>
