<svg width="44" height="44" viewBox="0 0 44 44" fill="none" xmlns="http://www.w3.org/2000/svg">
<path d="M40.4809 0H3.75964C1.75312 0 0 1.44375 0 3.4267V40.2295C0 42.2233 1.75312 44 3.75964 44H40.4701C42.4874 44 43.9999 42.2115 43.9999 40.2295V3.4267C44.0117 1.44375 42.4874 0 40.4809 0ZM13.639 36.6762H7.33561V17.0775H13.639V36.6762ZM10.7053 14.0977H10.6602C8.64284 14.0977 7.3366 12.596 7.3366 10.7162C7.3366 8.80196 8.67722 7.33563 10.7397 7.33563C12.8022 7.33563 14.0643 8.79116 14.1094 10.7162C14.1085 12.596 12.8022 14.0977 10.7053 14.0977ZM36.6761 36.6762H30.3727V25.96C30.3727 23.3927 29.4554 21.6386 27.1749 21.6386C25.4326 21.6386 24.4013 22.8171 23.9426 23.9653C23.7708 24.3778 23.7246 24.9396 23.7246 25.5131V36.6762H17.4212V17.0775H23.7246V19.8049C24.6419 18.4987 26.0749 16.6188 29.4092 16.6188C33.547 16.6188 36.6771 19.3463 36.6771 25.2263L36.6761 36.6762Z" fill="#050505"/>
</svg>
