<svg width="86" height="86" viewBox="0 0 86 86" fill="none" xmlns="http://www.w3.org/2000/svg">
<path d="M78.2655 39.4157L73.1541 67.1865C72.7607 68.3124 71.9052 69.9051 69.9159 70.9583C68.205 71.8396 66.1925 72.1333 65.3835 72.1333H8.18983C6.31653 71.5458 5 70.1251 5 68.4844C5 67.2111 5.78586 66.0852 7.01153 65.3749L10.5039 64.5663C26.3003 61.7003 38.0022 59.3994 42.3964 58.425C43.3678 58.2049 45.3803 57.7392 46.9994 56.3677C48.8727 54.776 49.1501 52.8415 49.2884 51.9838C49.8683 48.4086 51.1153 42.4822 52.7343 34.7678C52.9886 34.0574 53.8682 31.9765 56.1803 31.2662C56.9401 31.0379 57.7321 30.954 58.5195 31.0185C59.0955 31.0698 59.6624 31.2023 60.2053 31.4126C61.5644 31.9243 67.0335 33.4699 75.9515 35.8824C76.0955 35.9049 77.4139 36.1403 78.0422 37.4259C78.3333 38.0414 78.4122 38.7451 78.2655 39.4157Z" fill="#90FA08"/>
<path d="M7.73432 46.5843L12.8458 18.8135C13.2392 17.6876 14.0946 16.096 16.083 15.0427C17.7948 14.1604 19.8064 13.8667 20.6164 13.8667H77.81C79.6833 14.4542 80.9999 15.8749 80.9999 17.5156C80.9999 18.7889 80.213 19.9158 78.9874 20.6262L75.495 21.4348C59.6995 24.3007 47.9977 26.6016 43.6035 27.576C42.632 27.7961 40.6195 28.2618 39.0004 29.6324C37.1271 31.225 36.8497 33.1595 36.7105 34.0162C36.1306 37.5915 34.8836 43.5188 33.2645 51.2323C33.0103 51.9426 32.1317 54.0245 29.8186 54.7348C29.0591 54.9629 28.2674 55.0465 27.4803 54.9815C26.9042 54.9313 26.3371 54.7987 25.7946 54.5874C24.4355 54.0757 18.9664 52.5311 10.0484 50.1186C9.9034 50.0951 8.58591 49.8607 7.95664 48.5751C7.66573 47.9592 7.58709 47.2551 7.73432 46.5843Z" fill="#90FA08"/>
</svg>
