<svg width="249" height="39" viewBox="0 0 249 39" fill="none" xmlns="http://www.w3.org/2000/svg">
<path d="M100.696 1.46252L96.9196 21.0373C96.0476 25.4099 94.7811 28.756 93.1202 31.0757C91.4592 33.3954 89.1344 35.1443 86.1459 36.3225C84.1991 37.1324 81.9169 37.7379 79.2993 38.139C76.6817 38.5401 73.8621 38.742 70.8404 38.7445C57.0119 38.7445 50.0977 34.3212 50.0977 25.4747C50.0977 24.3992 50.2325 23.1045 50.5022 21.5904L54.3781 1.45996H67.367L63.491 21.389C63.357 22.1959 63.2898 22.7846 63.2894 23.155C63.2894 25.1055 64.0612 26.5184 65.6048 27.3935C67.1484 28.2686 69.3636 28.7057 72.2504 28.7049C75.1003 28.7049 77.5839 28.1507 79.7013 27.0425C81.9841 25.8323 83.4277 23.6124 84.0322 20.3826L87.7072 1.46316L100.696 1.46252Z" fill="white"/>
<path d="M145.049 37.4842H133.916C132.92 37.4839 131.946 37.1876 131.117 36.6328C130.289 36.078 129.643 35.2896 129.262 34.3672L126.068 26.6371H112.374L110.311 37.4842H97.3203L104.269 1.45801H136.187C140.248 1.45801 143.412 2.28175 145.679 3.92924C147.946 5.57673 149.079 7.89791 149.077 10.8928C149.077 14.9295 147.969 18.0742 145.754 20.3269C144.919 21.164 143.97 21.8777 142.935 22.4465C141.895 23.0186 140.619 23.4559 139.107 23.7585L139.007 24.162L145.049 37.4842ZM133.369 16.5961C134.074 15.7892 134.426 14.8135 134.426 13.669C134.426 11.9887 133.302 11.1481 131.053 11.1473H115.345L114.037 18.0092H129.694C131.271 18.0092 132.496 17.5382 133.369 16.5961Z" fill="white"/>
<path d="M186.381 14.3284C186.079 13.2513 185.324 12.2587 184.116 11.3508C182.908 10.4429 180.74 9.98826 177.72 9.98826C172.686 9.98826 168.943 11.5185 166.491 14.5791C165.683 15.5893 165.053 16.7751 164.602 18.1366C164.151 19.4981 163.925 20.8182 163.922 22.097C163.922 26.9414 167.413 29.3636 174.395 29.3636C176.677 29.3636 178.683 29.1034 180.312 28.5803C181.94 28.0573 183.19 27.4544 184.064 26.7639C184.938 26.0733 185.456 25.4774 185.623 24.9736H176.21L176.873 21.5848C177.098 20.4361 177.714 19.4014 178.616 18.6576C179.518 17.9137 180.65 17.507 181.818 17.5068H201.336L198.295 33.3898C198.074 34.5425 197.459 35.582 196.556 36.3297C195.653 37.0774 194.518 37.4866 193.347 37.487H188.548L189.354 33.3994C185.762 36.9653 180.257 38.7479 172.94 38.7479C157.365 38.7479 149.577 33.6356 149.578 23.4109C149.58 20.4736 150.135 17.563 151.215 14.8323C152.305 12.042 153.858 9.63724 155.873 7.61805C160.773 2.67346 168.543 0.201172 179.182 0.201172C186.869 0.201172 192.618 1.32009 196.327 3.55667C200.036 5.79324 201.891 8.87957 201.891 12.815C201.891 13.1526 201.856 13.6558 201.789 14.3297L186.381 14.3284Z" fill="white"/>
<path d="M48.3596 17.2763L44.9857 34.6241C44.726 35.3274 44.1614 36.3223 42.8483 36.9802C41.719 37.5308 40.3907 37.7143 39.8566 37.7143H2.10547C0.868987 37.3473 0 36.4598 0 35.4349C0 34.6395 0.518712 33.9361 1.32772 33.4924L3.6329 32.9873C14.0595 31.197 21.7834 29.7597 24.6838 29.151C25.325 29.0135 26.6534 28.7226 27.7221 27.8658C28.9586 26.8715 29.1417 25.6631 29.2329 25.1273C29.6157 22.8939 30.4388 19.1919 31.5075 14.3728C31.6753 13.9291 32.2559 12.6292 33.782 12.1855C34.2835 12.0428 34.8063 11.9905 35.326 12.0307C35.7062 12.0628 36.0804 12.1456 36.4387 12.2769C37.3358 12.5966 40.9457 13.5621 46.8321 15.0691C46.9272 15.0832 47.7975 15.2302 48.2122 16.0333C48.4043 16.4178 48.4564 16.8574 48.3596 17.2763Z" fill="white"/>
<path d="M1.80563 21.7544L5.1795 4.40656C5.43917 3.70324 6.00382 2.70899 7.31624 2.05106C8.44617 1.49991 9.7739 1.31641 10.3086 1.31641H48.0597C49.2962 1.68341 50.1652 2.57088 50.1652 3.59582C50.1652 4.39121 49.6458 5.09518 48.8368 5.53891L46.5317 6.04403C36.1057 7.83431 28.3818 9.27166 25.4814 9.88035C24.8402 10.0178 23.5118 10.3087 22.4431 11.1649C21.2066 12.1598 21.0235 13.3682 20.9316 13.9034C20.5488 16.1368 19.7258 19.8394 18.6571 24.6579C18.4893 25.1016 17.9093 26.4021 16.3825 26.8458C15.8812 26.9883 15.3587 27.0405 14.8392 26.9999C14.4589 26.9685 14.0846 26.8857 13.7265 26.7538C12.8294 26.4341 9.21946 25.4692 3.33306 23.9622C3.23736 23.9475 2.36774 23.8011 1.95238 22.998C1.76036 22.6133 1.70846 22.1734 1.80563 21.7544Z" fill="white"/>
<path d="M205.789 14.5488L204.203 22.4357H231.899C234.324 22.4357 236.356 20.7208 236.831 18.3391L237.586 14.5488H205.789Z" fill="white"/>
<path d="M214.571 37.4624C222.578 37.4304 230.495 37.4259 238.426 37.4483C239.605 37.4521 240.748 37.0438 241.659 36.2938C242.57 35.5437 243.191 34.4988 243.416 33.339L244.29 28.8633H203.143L201.465 37.5372C205.823 37.5052 210.191 37.4803 214.571 37.4624Z" fill="white"/>
<path d="M197.152 0C198.119 0.184783 200.998 0.865092 203.367 3.47443C204.814 5.0783 205.773 7.06384 206.129 9.1963C207.912 9.20781 210.325 9.22187 213.19 9.23466C214.772 9.24169 216.92 9.25576 219.292 9.25768C231.537 9.26791 236.168 9.24233 243.133 9.24233C244.312 9.2483 245.455 8.84126 246.367 8.0916C247.278 7.34194 247.899 6.29679 248.123 5.13683L249.001 0.661128L197.152 0Z" fill="white"/>
</svg>
