<svg width="55" height="44" viewBox="0 0 55 44" fill="none" xmlns="http://www.w3.org/2000/svg">
<path d="M53.8508 6.0115C53.2183 3.6465 51.3538 1.782 48.9888 1.1495C44.6988 5.73695e-07 27.5003 0 27.5003 0C27.5003 0 10.3018 5.73695e-07 6.0118 1.1495C3.6468 1.782 1.78231 3.6465 1.14981 6.0115C0.000305094 10.3015 0.000305176 22 0.000305176 22C0.000305176 22 0.000305094 33.6985 1.14981 37.9885C1.78231 40.3535 3.6468 42.218 6.0118 42.8505C10.3018 44 27.5003 44 27.5003 44C27.5003 44 44.6988 44 48.9888 42.8505C51.3566 42.218 53.2183 40.3535 53.8508 37.9885C55.0003 33.6985 55.0003 22 55.0003 22C55.0003 22 55.0003 10.3015 53.8508 6.0115ZM22.0003 29.1445V14.8555C22.0003 13.7968 23.1471 13.1367 24.0628 13.6647L36.4378 20.8093C37.3536 21.3373 37.3536 22.6627 36.4378 23.1907L24.0628 30.3353C23.1471 30.866 22.0003 30.2032 22.0003 29.1445Z" fill="#050505"/>
</svg>
