<svg width="54" height="54" viewBox="0 0 54 54" fill="none" xmlns="http://www.w3.org/2000/svg">
<path d="M38.2496 4.4996C41.2308 4.5085 44.0873 5.69671 46.1953 7.80472C48.3033 9.91273 49.4915 12.7692 49.5004 15.7504V38.2496C49.4915 41.2308 48.3033 44.0873 46.1953 46.1953C44.0873 48.3033 41.2308 49.4915 38.2496 49.5004H15.7504C12.7692 49.4915 9.91273 48.3033 7.80472 46.1953C5.69671 44.0873 4.5085 41.2308 4.4996 38.2496V15.7504C4.5085 12.7692 5.69671 9.91273 7.80472 7.80472C9.91273 5.69671 12.7692 4.5085 15.7504 4.4996H38.2496ZM38.2496 0H15.7504C7.0875 0 0 7.0875 0 15.7504V38.2496C0 46.9125 7.0875 54 15.7504 54H38.2496C46.9125 54 54 46.9125 54 38.2496V15.7504C54 7.0875 46.9125 0 38.2496 0Z" fill="white"/>
<path d="M41.6246 15.75C40.9571 15.75 40.3046 15.552 39.7495 15.1812C39.1945 14.8103 38.7619 14.2832 38.5065 13.6665C38.2511 13.0498 38.1842 12.3712 38.3144 11.7166C38.4447 11.0619 38.7661 10.4605 39.2381 9.98851C39.7101 9.51651 40.3115 9.19508 40.9662 9.06485C41.6208 8.93463 42.2995 9.00146 42.9162 9.25691C43.5329 9.51235 44.06 9.94493 44.4308 10.4999C44.8017 11.055 44.9996 11.7075 44.9996 12.375C45.0005 12.8185 44.9139 13.2578 44.7446 13.6677C44.5754 14.0776 44.3268 14.45 44.0132 14.7636C43.6996 15.0772 43.3272 15.3257 42.9173 15.495C42.5074 15.6643 42.0681 15.7509 41.6246 15.75ZM27 17.9991C28.7801 17.9991 30.5202 18.527 32.0004 19.516C33.4805 20.5049 34.6341 21.9106 35.3153 23.5552C35.9965 25.1998 36.1747 27.0095 35.8275 28.7554C35.4802 30.5013 34.623 32.105 33.3642 33.3637C32.1055 34.6224 30.5018 35.4796 28.7559 35.8269C27.01 36.1742 25.2003 35.9959 23.5557 35.3147C21.9111 34.6335 20.5054 33.4799 19.5164 31.9998C18.5275 30.5197 17.9996 28.7796 17.9996 26.9995C18.0022 24.6132 18.9512 22.3254 20.6386 20.6381C22.3259 18.9508 24.6137 18.0017 27 17.9991ZM27 13.4996C24.33 13.4996 21.7199 14.2913 19.4998 15.7747C17.2797 17.2581 15.5494 19.3665 14.5276 21.8333C13.5058 24.3001 13.2385 27.0145 13.7594 29.6332C14.2803 32.2519 15.5661 34.6574 17.4541 36.5454C19.3421 38.4334 21.7475 39.7191 24.3663 40.24C26.985 40.7609 29.6994 40.4936 32.1662 39.4718C34.633 38.45 36.7414 36.7197 38.2248 34.4996C39.7082 32.2796 40.5 29.6695 40.5 26.9995C40.5 23.4191 39.0777 19.9853 36.5459 17.4536C34.0142 14.9219 30.5804 13.4996 27 13.4996Z" fill="white"/>
</svg>
