<svg width="54" height="54" viewBox="0 0 54 54" fill="none" xmlns="http://www.w3.org/2000/svg">
<path d="M49.6811 0H4.6141C2.15156 0 0 1.77187 0 4.20549V49.3726C0 51.8195 2.15156 54 4.6141 54H49.6679C52.1437 54 53.9999 51.805 53.9999 49.3726V4.20549C54.0144 1.77187 52.1437 0 49.6811 0ZM16.7388 45.0117H9.0028V20.9588H16.7388V45.0117ZM13.1384 17.3017H13.0829C10.6071 17.3017 9.004 15.4587 9.004 13.1517C9.004 10.8024 10.6493 9.00281 13.1806 9.00281C15.7118 9.00281 17.2607 10.7892 17.3161 13.1517C17.3149 15.4587 15.7118 17.3017 13.1384 17.3017ZM45.0116 45.0117H37.2756V31.86C37.2756 28.7092 36.1498 26.5564 33.351 26.5564C31.2127 26.5564 29.9471 28.0029 29.3841 29.4119C29.1732 29.9182 29.1166 30.6076 29.1166 31.3116V45.0117H21.3806V20.9588H29.1166V24.306C30.2424 22.7029 32.001 20.3958 36.0932 20.3958C41.1713 20.3958 45.0128 23.7431 45.0128 30.9596L45.0116 45.0117Z" fill="white"/>
</svg>
